<svg width="34" height="35" viewBox="0 0 34 35" fill="none" xmlns="http://www.w3.org/2000/svg">
<rect x="1" y="1.01311" width="32" height="32.2026" rx="16" fill="white" stroke="#888888" stroke-width="2"/>
<path fill-rule="evenodd" clip-rule="evenodd" d="M15.0842 8.10099C15.028 8.1263 14.9557 8.17676 14.9236 8.21314C14.8915 8.24951 14.8417 8.33621 14.8128 8.4058C14.7748 8.49773 14.7604 8.65498 14.7604 8.98041V9.42843H12.0181C9.96465 9.42843 9.25346 9.43875 9.18651 9.46952C9.13736 9.4921 9.07529 9.5532 9.04857 9.60531C9.01033 9.67992 9 9.88313 9 10.5612V11.4224H16.7714H24.5429V10.5646C24.5429 9.97269 24.5302 9.67875 24.5021 9.61656C24.4797 9.56698 24.4192 9.50438 24.3675 9.47742C24.2885 9.43624 23.8422 9.42843 21.5621 9.42843H18.8506L18.8499 8.97291C18.8493 8.6032 18.8372 8.49085 18.7857 8.37647C18.7508 8.29898 18.6706 8.19842 18.6075 8.15301L18.4927 8.07046L16.8396 8.06273C15.5192 8.05651 15.1659 8.06424 15.0842 8.10099ZM10.0777 12.3173C10.0237 12.3337 9.94123 12.3827 9.8944 12.4262C9.84756 12.4697 9.78969 12.5518 9.76576 12.6085C9.72837 12.6971 9.80093 13.594 10.2817 18.9842C10.7488 24.2222 10.8513 25.2765 10.9028 25.3767C10.9368 25.4427 11.0068 25.5285 11.0585 25.5674C11.1522 25.638 11.1606 25.6381 16.7824 25.647C22.2129 25.6556 22.4168 25.6536 22.5318 25.592C22.5974 25.5569 22.6848 25.4676 22.7259 25.3937C22.795 25.2693 22.8433 24.7873 23.3691 18.9785L23.9377 12.6977L23.8705 12.5671C23.8336 12.4953 23.7512 12.4057 23.6874 12.3678C23.5726 12.2998 23.5048 12.299 16.8737 12.2933C13.1688 12.29 10.1321 12.3008 10.0777 12.3173ZM14.6581 18.8827V23.5582H13.9594H13.2607V18.8827V14.2071H13.9594H14.6581V18.8827ZM17.4447 18.8912L17.4534 23.5582H16.7375H16.0216V18.9056C16.0216 16.3466 16.0321 14.2423 16.045 14.2294C16.0579 14.2164 16.3761 14.2099 16.7522 14.215L17.4361 14.2243L17.4447 18.8912ZM20.214 18.8827V23.5582H19.5153H18.8165V18.8827V14.2071H19.5153H20.214V18.8827Z" fill="#888888"/>
</svg>
