<svg width="31" height="34" viewBox="0 0 31 34" fill="none" xmlns="http://www.w3.org/2000/svg">
<path d="M14.2639 1.19892C14.2639 0.832325 14.6745 0.535156 15.1805 0.535156C15.6864 0.535156 16.097 0.832325 16.097 1.19892V13.1875C16.097 13.5541 15.6867 13.8513 15.1805 13.8513C14.6742 13.8513 14.2639 13.5541 14.2639 13.1875V1.19892ZM19.7695 5.84663C19.2947 5.67157 19.0511 5.14289 19.2254 4.66525C19.3992 4.18789 19.9247 3.94287 20.3995 4.11792C23.3434 5.20259 25.8616 7.18119 27.63 9.72792C29.3512 12.2063 30.3612 15.2174 30.3612 18.4606C30.3612 22.6766 28.6615 26.4944 25.9142 29.2584C23.167 32.0218 19.3718 33.7318 15.1805 33.7318C10.9892 33.7318 7.19399 32.022 4.44669 29.2584C1.69967 26.4944 0 22.6766 0 18.4606C0 15.2174 1.00976 12.2063 2.73091 9.72792C4.49933 7.18119 7.01755 5.20259 9.96142 4.11792C10.436 3.94314 10.9618 4.18816 11.1355 4.66525C11.3096 5.14261 11.066 5.67157 10.5914 5.84663C7.99749 6.80243 5.78086 8.54222 4.22729 10.7794C2.71829 12.9525 1.83287 15.6005 1.83287 18.4606C1.83287 22.1679 3.3271 25.5246 5.74273 27.9546C8.15836 30.3846 11.4951 31.888 15.1805 31.888C18.8658 31.888 22.2026 30.3849 24.6182 27.9546C27.0338 25.5248 28.5281 22.1679 28.5281 18.4606C28.5281 15.6005 27.6427 12.9525 26.1337 10.7794C24.5798 8.54195 22.3634 6.80216 19.7695 5.84663Z" fill="#FF001E"/>
</svg>
