<svg width="35" height="35" viewBox="0 0 35 35" fill="none" xmlns="http://www.w3.org/2000/svg">
<path d="M17.5 0.529297C22.3323 0.529297 26.708 2.44384 29.8744 5.53811C33.0408 8.63305 35 12.9084 35 17.6306C35 22.3528 33.0408 26.6288 29.8744 29.7231C26.708 32.8174 22.3323 34.7319 17.5 34.7319C12.6677 34.7319 8.29199 32.8174 5.12559 29.7231C1.95918 26.6288 0 22.3528 0 17.6306C0 12.9084 1.95918 8.63305 5.12559 5.53811C8.29199 2.44384 12.6677 0.529297 17.5 0.529297ZM18.7134 23.3923H20.7061V25.3509H14.2946V23.3923H16.2606V17.2238H14.2946V15.2651H18.7134V23.3923ZM16.8034 13.3473C16.3194 13.3439 15.9065 13.1783 15.5593 12.8422C15.212 12.5076 15.0425 12.1001 15.0425 11.6231C15.0425 11.1548 15.212 10.7507 15.5593 10.4153C15.9065 10.08 16.3194 9.91097 16.8034 9.91097C17.2785 9.91097 17.6914 10.08 18.0394 10.4153C18.39 10.7507 18.5637 11.1548 18.5637 11.6231C18.5637 11.9384 18.4816 12.229 18.3203 12.4875C18.159 12.7501 17.9478 12.9598 17.6839 13.1135C17.4193 13.2671 17.1254 13.3439 16.8034 13.3473ZM28.5544 6.82806C25.7257 4.06446 21.8169 2.35433 17.5 2.35433C13.1831 2.35433 9.27432 4.06446 6.44561 6.82806C3.61758 9.59299 1.86758 13.4121 1.86758 17.6306C1.86758 21.8492 3.61758 25.6689 6.44561 28.4332C9.27432 31.1968 13.1831 32.9069 17.5 32.9069C21.8169 32.9069 25.7257 31.1968 28.5544 28.4332C31.3824 25.6689 33.1324 21.8492 33.1324 17.6306C33.1324 13.4121 31.3824 9.59299 28.5544 6.82806Z" fill="black"/>
</svg>
